<?xml version="1.0" standalone="no"?>
<!DOCTYPE svg PUBLIC "-//W3C//DTD SVG 20010904//EN"
 "http://www.w3.org/TR/2001/REC-SVG-20010904/DTD/svg10.dtd">
<svg version="1.0" xmlns="http://www.w3.org/2000/svg"
 width="1024.000000pt" height="1024.000000pt" viewBox="0 0 1024.000000 1024.000000"
 preserveAspectRatio="xMidYMid meet">

<g transform="translate(0.000000,1024.000000) scale(0.100000,-0.100000)"
fill="#000000" stroke="none">
<path d="M8245 6000 c-71 -4 -222 -11 -334 -15 l-203 -8 7 -201 c4 -111 10
-204 13 -207 8 -8 711 8 760 16 l32 6 -2 207 -3 207 -70 1 c-38 1 -128 -2
-200 -6z"/>
<path d="M505 5944 c-335 -141 -397 -168 -412 -179 -16 -12 -17 -67 -16 -706
1 -459 6 -764 15 -902 l13 -207 256 192 c140 106 268 203 284 216 l30 24 -3
276 c-2 152 -7 477 -12 722 -5 245 -10 484 -10 533 0 48 -3 87 -7 86 -5 0 -66
-25 -138 -55z"/>
<path d="M1158 5463 c3 -296 8 -548 13 -560 9 -25 126 -120 264 -214 167 -115
569 -374 710 -459 184 -110 301 -185 351 -226 23 -19 46 -34 51 -34 16 0 23
260 48 1674 l7 359 -39 -6 c-21 -4 -108 -7 -195 -7 -143 0 -156 -1 -153 -17 8
-39 14 -733 7 -733 -4 0 -37 24 -72 53 -70 58 -579 443 -720 544 -97 70 -248
163 -264 163 -8 0 -10 -150 -8 -537z"/>
<path d="M3903 5945 c-126 -34 -265 -129 -345 -234 -91 -120 -114 -190 -173
-516 -58 -323 -179 -926 -201 -1008 -13 -48 -24 -105 -24 -127 l0 -38 63 1
c57 2 71 -2 174 -55 177 -90 272 -169 377 -313 19 -25 29 -15 50 52 31 95 87
155 238 255 33 22 61 45 64 53 3 7 -4 34 -15 59 -25 55 -21 69 54 186 68 106
161 300 190 394 13 45 36 143 49 219 42 229 55 253 150 283 50 17 381 26 1216
36 l225 3 6 130 c4 72 7 163 8 203 0 40 5 71 9 68 4 -2 89 -12 187 -21 99 -9
184 -20 188 -24 4 -4 7 -48 5 -97 l-3 -89 -150 -19 c-82 -10 -159 -22 -171
-26 -17 -7 -22 -20 -28 -66 -6 -53 -5 -60 16 -76 13 -10 19 -18 14 -18 -21 0
24 -35 82 -62 82 -39 89 -55 74 -155 -16 -102 -38 -127 -104 -120 -26 3 -64
17 -85 30 -21 13 -58 26 -82 30 l-44 5 6 -48 c3 -26 17 -82 31 -124 39 -116
33 -175 -26 -245 -33 -40 -61 -55 -238 -126 -36 -14 -71 -29 -77 -32 -17 -7
-16 21 1 55 8 15 19 59 25 97 15 99 36 418 28 438 -5 13 -19 17 -69 17 -102 0
-102 -1 -139 -103 -68 -191 -190 -409 -215 -385 -3 4 -5 98 -4 210 0 111 -2
218 -6 236 l-7 33 -65 -3 c-61 -3 -68 -5 -87 -33 -11 -17 -35 -83 -54 -148
-18 -64 -36 -117 -40 -117 -11 0 -136 271 -155 337 -12 38 -30 45 -66 26 l-32
-18 5 -110 c6 -116 18 -185 68 -378 16 -65 34 -141 39 -168 15 -80 33 -99 94
-100 45 0 48 -2 28 -12 -18 -8 -35 -8 -68 1 -59 16 -64 15 -128 -8 -48 -18
-58 -27 -78 -68 -20 -41 -23 -61 -22 -162 0 -144 13 -186 57 -195 18 -4 70
-28 117 -54 47 -27 111 -63 142 -80 32 -18 71 -46 88 -62 21 -21 31 -26 34
-17 3 7 12 40 21 73 9 33 40 103 68 155 28 52 69 131 92 175 62 122 81 149
123 173 55 31 295 69 519 83 294 18 469 -6 606 -83 77 -44 329 -225 396 -285
l54 -49 56 56 c95 95 263 200 321 200 16 0 30 5 30 10 0 6 -9 10 -20 10 -36 0
-73 26 -140 97 -81 85 -132 152 -189 245 -141 232 -210 452 -166 534 24 46
156 137 310 214 l130 65 3 40 c4 69 2 70 -170 70 -84 0 -195 -4 -245 -8 -94
-9 -124 1 -61 19 29 9 33 15 41 59 10 63 -5 183 -34 259 -43 117 -164 225
-297 266 -98 31 -313 39 -967 40 -558 0 -709 -6 -965 -37 -209 -25 -370 -22
-512 10 -134 31 -134 31 -205 12z m-213 -925 c0 -41 -24 -66 -48 -51 -9 5 -7
18 10 49 13 23 26 42 31 42 4 0 7 -18 7 -40z"/>
<path d="M8874 5475 c-38 -31 -109 -81 -159 -112 -49 -31 -92 -58 -94 -60 -12
-9 51 -57 123 -94 44 -23 104 -56 131 -74 28 -18 95 -58 150 -90 178 -103 326
-205 346 -239 10 -17 48 -56 84 -86 68 -56 244 -241 284 -297 12 -18 25 -33
29 -33 9 0 7 674 -2 688 -4 6 -50 37 -104 68 -53 31 -167 98 -252 149 -307
182 -407 235 -446 235 -11 0 -52 -25 -90 -55z"/>
<path d="M7810 5300 c-162 -3 -301 -10 -309 -14 -11 -7 -13 -38 -7 -175 8
-214 11 -224 62 -233 50 -9 672 -10 794 -1 l93 6 -7 96 c-9 133 -28 305 -35
312 -11 11 -288 16 -591 9z"/>
<path d="M9366 4638 c-3 -18 -7 -136 -8 -263 l-3 -229 58 -31 c32 -16 95 -62
140 -100 45 -39 114 -95 152 -125 39 -30 76 -61 84 -68 7 -7 15 -11 17 -10 1
2 4 99 5 216 l1 213 -31 17 c-42 22 -322 304 -364 364 -17 26 -35 48 -39 48
-4 0 -9 -15 -12 -32z"/>
<path d="M7484 4562 c-11 -59 1 -395 15 -400 9 -3 9 -7 0 -18 -18 -21 -5 -17
83 27 126 63 170 70 533 75 l320 6 3 166 c2 125 -1 168 -10 174 -7 5 -221 8
-475 7 l-463 -3 -6 -34z"/>
</g>
</svg>
